<svg width="200" height="140" viewBox="0 0 200 140" fill="none" xmlns="http://www.w3.org/2000/svg">
<path d="M32.0792 63.5195L11.3987 38.3224V63.5195H0V6.9677H11.3987V32.3269L32.0792 6.9677H45.839L22.3903 35.0005L46.4904 63.5195H32.0792Z" fill="#FFCC33"/>
<path d="M59.7687 13.2872C57.7603 13.2872 56.0777 12.6661 54.7207 11.4238C53.418 10.1275 52.7666 8.53408 52.7666 6.64362C52.7666 4.75316 53.418 3.18678 54.7207 1.94447C56.0777 0.648157 57.7603 0 59.7687 0C61.777 0 63.4325 0.648157 64.7352 1.94447C66.0922 3.18678 66.7707 4.75316 66.7707 6.64362C66.7707 8.53408 66.0922 10.1275 64.7352 11.4238C63.4325 12.6661 61.777 13.2872 59.7687 13.2872ZM65.3866 18.6346V63.5195H53.9879V18.6346H65.3866Z" fill="#FFCC33"/>
<path d="M73.7174 40.915C73.7174 36.3779 74.613 32.3539 76.4043 28.843C78.2498 25.3322 80.7466 22.6315 83.8948 20.7411C87.043 18.8506 90.5441 17.9054 94.3979 17.9054C97.329 17.9054 100.124 18.5535 102.784 19.8498C105.444 21.0921 107.561 22.7666 109.135 24.8731V3.56487H120.696V63.5195H109.135V56.8759C107.724 59.0904 105.742 60.8729 103.191 62.2232C100.64 63.5735 97.6818 64.2487 94.3165 64.2487C90.5169 64.2487 87.043 63.2765 83.8948 61.332C80.7466 59.3875 78.2498 56.6598 76.4043 53.149C74.613 49.5841 73.7174 45.5061 73.7174 40.915ZM109.216 41.077C109.216 38.3224 108.673 35.9728 107.588 34.0283C106.502 32.0298 105.037 30.5175 103.191 29.4912C101.346 28.4109 99.3645 27.8708 97.2476 27.8708C95.1307 27.8708 93.1766 28.3839 91.3854 29.4102C89.5942 30.4364 88.1286 31.9488 86.9888 33.9473C85.9032 35.8918 85.3604 38.2143 85.3604 40.915C85.3604 43.6157 85.9032 45.9922 86.9888 48.0447C88.1286 50.0432 89.5942 51.5826 91.3854 52.6629C93.2309 53.7431 95.185 54.2833 97.2476 54.2833C99.3645 54.2833 101.346 53.7701 103.191 52.7439C105.037 51.6636 106.502 50.1512 107.588 48.2068C108.673 46.2083 109.216 43.8317 109.216 41.077Z" fill="#FFCC33"/>
<path d="M149.09 64.2487C145.399 64.2487 142.088 63.6005 139.157 62.3042C136.226 60.9539 133.892 59.1444 132.155 56.8759C130.472 54.6073 129.549 52.0957 129.387 49.3411H140.867C141.084 51.0695 141.925 52.5008 143.391 53.6351C144.91 54.7694 146.783 55.3365 149.009 55.3365C151.18 55.3365 152.862 54.9044 154.057 54.0402C155.305 53.176 155.929 52.0687 155.929 50.7184C155.929 49.26 155.169 48.1798 153.649 47.4776C152.184 46.7214 149.823 45.9112 146.566 45.047C143.201 44.2368 140.432 43.3996 138.261 42.5354C136.144 41.6712 134.299 40.3479 132.725 38.5654C131.205 36.783 130.445 34.3794 130.445 31.3547C130.445 28.8701 131.151 26.6015 132.562 24.549C134.027 22.4965 136.09 20.8761 138.75 19.6878C141.464 18.4995 144.639 17.9054 148.276 17.9054C153.649 17.9054 157.938 19.2557 161.14 21.9564C164.343 24.603 166.107 28.1949 166.432 32.732H155.522C155.359 30.9496 154.599 29.5452 153.242 28.519C151.94 27.4387 150.176 26.8986 147.95 26.8986C145.887 26.8986 144.286 27.2767 143.146 28.0328C142.061 28.789 141.518 29.8423 141.518 31.1926C141.518 32.705 142.278 33.8663 143.798 34.6765C145.318 35.4327 147.679 36.2158 150.881 37.026C154.138 37.8362 156.825 38.6734 158.942 39.5377C161.059 40.4019 162.877 41.7522 164.397 43.5886C165.971 45.3711 166.785 47.7477 166.839 50.7184C166.839 53.311 166.107 55.6336 164.641 57.6861C163.23 59.7386 161.167 61.359 158.453 62.5473C155.794 63.6816 152.672 64.2487 149.09 64.2487Z" fill="#FFCC33"/>
<path d="M95.1388 72.0359C98.4924 72.0359 101.44 72.7123 103.983 74.0652C106.525 75.364 108.526 77.0686 109.987 79.1791V72.7665H121.427V118.061C121.427 122.228 120.588 125.935 118.911 129.181C117.235 132.482 114.719 135.08 111.366 136.974C108.012 138.922 103.955 139.896 99.1955 139.896C92.8129 139.896 87.5662 138.408 83.4553 135.432C79.3986 132.455 77.0997 128.397 76.5588 123.256H87.8366C88.4316 125.312 89.7027 126.936 91.65 128.126C93.6513 129.371 96.0583 129.993 98.871 129.993C102.17 129.993 104.848 128.992 106.903 126.99C108.959 125.042 109.987 122.065 109.987 118.061V111.08C108.526 113.19 106.498 114.949 103.901 116.356C101.359 117.763 98.4383 118.467 95.1388 118.467C91.3525 118.467 87.8907 117.493 84.7535 115.544C81.6163 113.596 79.1281 110.863 77.2891 107.346C75.5041 103.774 74.6116 99.6887 74.6116 95.0889C74.6116 90.5433 75.5041 86.5117 77.2891 82.9942C79.1281 79.4767 81.5892 76.771 84.6724 74.8769C87.8096 72.9829 91.2984 72.0359 95.1388 72.0359ZM109.987 95.2513C109.987 92.4914 109.446 90.1374 108.364 88.1893C107.282 86.187 105.822 84.6718 103.983 83.6436C102.143 82.5613 100.169 82.0201 98.0596 82.0201C95.9501 82.0201 94.0029 82.5342 92.2179 83.5624C90.4329 84.5906 88.9725 86.1058 87.8366 88.1081C86.7548 90.0562 86.2139 92.3832 86.2139 95.0889C86.2139 97.7947 86.7548 100.176 87.8366 102.232C88.9725 104.234 90.4329 105.777 92.2179 106.859C94.057 107.941 96.0042 108.482 98.0596 108.482C100.169 108.482 102.143 107.968 103.983 106.94C105.822 105.858 107.282 104.343 108.364 102.394C109.446 100.392 109.987 98.0112 109.987 95.2513Z" fill="#FFCC33"/>
<path d="M152.48 118.467C148.153 118.467 144.258 117.52 140.796 115.626C137.335 113.677 134.603 110.945 132.602 107.427C130.654 103.91 129.681 99.8511 129.681 95.2513C129.681 90.6515 130.681 86.5929 132.683 83.0754C134.738 79.5579 137.524 76.8521 141.04 74.9581C144.556 73.01 148.477 72.0359 152.804 72.0359C157.131 72.0359 161.053 73.01 164.569 74.9581C168.085 76.8521 170.843 79.5579 172.845 83.0754C174.9 86.5929 175.928 90.6515 175.928 95.2513C175.928 99.8511 174.873 103.91 172.764 107.427C170.708 110.945 167.895 113.677 164.325 115.626C160.81 117.52 156.861 118.467 152.48 118.467ZM152.48 108.564C154.535 108.564 156.455 108.077 158.24 107.102C160.079 106.074 161.54 104.559 162.622 102.557C163.703 100.555 164.244 98.1194 164.244 95.2513C164.244 90.9762 163.108 87.7022 160.837 85.4294C158.619 83.1024 155.887 81.939 152.642 81.939C149.397 81.939 146.665 83.1024 144.447 85.4294C142.284 87.7022 141.202 90.9762 141.202 95.2513C141.202 99.5264 142.257 102.827 144.366 105.154C146.53 107.427 149.234 108.564 152.48 108.564Z" fill="#FFCC33"/>
<path d="M198.945 60.1035L197.647 99.3099H188.073L186.694 60.1035H198.945ZM193.104 118.304C191.048 118.304 189.344 117.682 187.992 116.437C186.694 115.139 186.045 113.542 186.045 111.648C186.045 109.754 186.694 108.185 187.992 106.94C189.344 105.641 191.048 104.992 193.104 104.992C195.105 104.992 196.755 105.641 198.053 106.94C199.351 108.185 200 109.754 200 111.648C200 113.542 199.351 115.139 198.053 116.437C196.755 117.682 195.105 118.304 193.104 118.304Z" fill="#FFCC33"/>
<circle cx="29.6201" cy="79.1248" r="6.29768" fill="#2D2D2D"/>
<path d="M66.0069 94.869C66.0069 97.6717 65.4549 100.447 64.3823 103.036C63.3098 105.626 61.7377 107.978 59.7559 109.96C57.7741 111.942 55.4214 113.514 52.832 114.587C50.2427 115.659 47.4675 116.211 44.6648 116.211C41.8621 116.211 39.0868 115.659 36.4975 114.587C33.9081 113.514 31.5554 111.942 29.5736 109.96C27.5918 107.978 26.0197 105.626 24.9472 103.036C23.8747 100.447 23.3226 97.6717 23.3226 94.869L32.6944 94.869C32.6944 96.441 33.0041 97.9975 33.6056 99.4498C34.2072 100.902 35.0889 102.222 36.2005 103.333C37.312 104.445 38.6316 105.327 40.0839 105.928C41.5362 106.53 43.0928 106.839 44.6648 106.839C46.2367 106.839 47.7933 106.53 49.2456 105.928C50.6979 105.327 52.0175 104.445 53.1291 103.333C54.2406 102.222 55.1223 100.902 55.7239 99.4498C56.3255 97.9975 56.6351 96.441 56.6351 94.869H66.0069Z" fill="#2D2D2D"/>
<circle cx="59.7091" cy="79.1248" r="6.29768" fill="#2D2D2D"/>
</svg>
