<svg width="168" height="118" viewBox="0 0 168 118" fill="none" xmlns="http://www.w3.org/2000/svg">
<path d="M26.9465 53.3564L9.5749 32.1908V53.3564H0V5.85287H9.5749V27.1546L26.9465 5.85287H38.5048L18.8078 29.4005L39.0519 53.3564H26.9465Z" fill="white"/>
<path d="M50.2057 11.1613C48.5187 11.1613 47.1053 10.6395 45.9654 9.59599C44.8711 8.50708 44.324 7.16863 44.324 5.58064C44.324 3.99265 44.8711 2.67689 45.9654 1.63336C47.1053 0.544452 48.5187 0 50.2057 0C51.8927 0 53.2833 0.544452 54.3776 1.63336C55.5175 2.67689 56.0874 3.99265 56.0874 5.58064C56.0874 7.16863 55.5175 8.50708 54.3776 9.59599C53.2833 10.6395 51.8927 11.1613 50.2057 11.1613ZM54.9248 15.653V53.3564H45.3499V15.653H54.9248Z" fill="white"/>
<path d="M61.9227 34.3686C61.9227 30.5574 62.675 27.1773 64.1796 24.2282C65.7298 21.279 67.8272 19.0105 70.4717 17.4225C73.1162 15.8345 76.057 15.0405 79.2943 15.0405C81.7564 15.0405 84.1045 15.585 86.3386 16.6739C88.5728 17.7174 90.351 19.1239 91.6732 20.8934V2.99449H101.385V53.3564H91.6732V47.7758C90.4878 49.636 88.8236 51.1332 86.6806 52.2675C84.5377 53.4018 82.0527 53.9689 79.2259 53.9689C76.0342 53.9689 73.1162 53.1522 70.4717 51.5189C67.8272 49.8855 65.7298 47.5943 64.1796 44.6451C62.675 41.6507 61.9227 38.2251 61.9227 34.3686ZM91.7416 34.5047C91.7416 32.1908 91.2857 30.2171 90.3738 28.5838C89.4619 26.9051 88.2308 25.6347 86.6806 24.7726C85.1304 23.8652 83.4662 23.4115 81.688 23.4115C79.9098 23.4115 78.2684 23.8425 76.7638 24.7046C75.2591 25.5666 74.0281 26.837 73.0706 28.5157C72.1587 30.1491 71.7027 32.1 71.7027 34.3686C71.7027 36.6372 72.1587 38.6335 73.0706 40.3576C74.0281 42.0363 75.2591 43.3294 76.7638 44.2368C78.314 45.1442 79.9554 45.5979 81.688 45.5979C83.4662 45.5979 85.1304 45.1669 86.6806 44.3049C88.2308 43.3974 89.4619 42.1271 90.3738 40.4937C91.2857 38.815 91.7416 36.8186 91.7416 34.5047Z" fill="white"/>
<path d="M125.236 53.9689C122.135 53.9689 119.354 53.4245 116.892 52.3355C114.43 51.2013 112.469 49.6813 111.01 47.7758C109.597 45.8702 108.821 43.7604 108.685 41.4465H118.328C118.51 42.8984 119.217 44.1007 120.448 45.0535C121.725 46.0063 123.298 46.4827 125.167 46.4827C126.991 46.4827 128.404 46.1197 129.408 45.3938C130.456 44.6678 130.981 43.7377 130.981 42.6035C130.981 41.3784 130.342 40.471 129.066 39.8812C127.835 39.246 125.851 38.5654 123.115 37.8395C120.289 37.1589 117.963 36.4557 116.139 35.7297C114.361 35.0038 112.811 33.8922 111.489 32.395C110.212 30.8977 109.574 28.8787 109.574 26.3379C109.574 24.2508 110.167 22.3453 111.352 20.6212C112.583 18.8971 114.316 17.5359 116.55 16.5378C118.83 15.5396 121.497 15.0405 124.552 15.0405C129.066 15.0405 132.668 16.1748 135.358 18.4433C138.048 20.6665 139.53 23.6837 139.803 27.4949H130.639C130.502 25.9976 129.863 24.818 128.724 23.9559C127.629 23.0485 126.147 22.5948 124.278 22.5948C122.546 22.5948 121.2 22.9124 120.243 23.5476C119.331 24.1828 118.875 25.0675 118.875 26.2018C118.875 27.4722 119.513 28.4477 120.79 29.1282C122.067 29.7634 124.05 30.4213 126.74 31.1019C129.476 31.7824 131.733 32.4857 133.511 33.2116C135.289 33.9376 136.817 35.0718 138.093 36.6145C139.416 38.1117 140.099 40.108 140.145 42.6035C140.145 44.7813 139.53 46.7322 138.299 48.4563C137.113 50.1804 135.38 51.5416 133.101 52.5397C130.867 53.4925 128.245 53.9689 125.236 53.9689Z" fill="white"/>
<path d="M79.9164 60.5103C82.7334 60.5103 85.2097 61.0785 87.3451 62.2149C89.4806 63.3059 91.1617 64.7377 92.3885 66.5105V61.1239H101.998V99.1712C101.998 102.671 101.294 105.785 99.8854 108.513C98.4769 111.285 96.3641 113.467 93.5471 115.058C90.7301 116.695 87.3224 117.513 83.3241 117.513C77.9627 117.513 73.5554 116.263 70.1023 113.763C66.6946 111.263 64.7636 107.853 64.3093 103.535H73.7826C74.2824 105.262 75.3501 106.626 76.9858 107.626C78.6669 108.672 80.6888 109.194 83.0515 109.194C85.8231 109.194 88.0721 108.353 89.7987 106.672C91.5252 105.035 92.3885 102.535 92.3885 99.1712V93.3073C91.1617 95.0801 89.4579 96.5574 87.277 97.7393C85.1415 98.9212 82.688 99.5121 79.9164 99.5121C76.7359 99.5121 73.828 98.6939 71.1928 97.0575C68.5575 95.421 66.4675 93.1254 64.9226 90.1708C63.4233 87.1706 62.6736 83.7386 62.6736 79.8748C62.6736 76.0565 63.4233 72.6699 64.9226 69.7152C66.4675 66.7606 68.5348 64.4877 71.1246 62.8967C73.7599 61.3058 76.6905 60.5103 79.9164 60.5103ZM92.3885 80.0112C92.3885 77.6929 91.9341 75.7155 91.0254 74.0791C90.1167 72.3972 88.89 71.1244 87.3451 70.2607C85.8003 69.3516 84.1419 68.897 82.3699 68.897C80.598 68.897 78.9623 69.3289 77.4629 70.1925C75.9635 71.0562 74.7368 72.329 73.7826 74.0109C72.8739 75.6473 72.4195 77.602 72.4195 79.8748C72.4195 82.1477 72.8739 84.1478 73.7826 85.8751C74.7368 87.557 75.9635 88.8525 77.4629 89.7617C79.0077 90.6708 80.6434 91.1254 82.3699 91.1254C84.1419 91.1254 85.8003 90.6935 87.3451 89.8298C88.89 88.9207 90.1167 87.6479 91.0254 86.0115C91.9341 84.3296 92.3885 82.3295 92.3885 80.0112Z" fill="white"/>
<path d="M128.083 99.5121C124.448 99.5121 121.177 98.7166 118.269 97.1256C115.361 95.4892 113.066 93.1936 111.385 90.239C109.75 87.2843 108.932 83.875 108.932 80.0112C108.932 76.1474 109.772 72.7381 111.453 69.7834C113.18 66.8287 115.52 64.5559 118.473 62.9649C121.427 61.3285 124.721 60.5103 128.355 60.5103C131.99 60.5103 135.284 61.3285 138.238 62.9649C141.191 64.5559 143.508 66.8287 145.189 69.7834C146.916 72.7381 147.779 76.1474 147.779 80.0112C147.779 83.875 146.893 87.2843 145.121 90.239C143.395 93.1936 141.032 95.4892 138.033 97.1256C135.08 98.7166 131.763 99.5121 128.083 99.5121ZM128.083 91.1935C129.809 91.1935 131.422 90.7844 132.922 89.9662C134.467 89.1025 135.693 87.8297 136.602 86.1478C137.511 84.466 137.965 82.4204 137.965 80.0112C137.965 76.4201 137.011 73.67 135.103 71.7608C133.24 69.8062 130.945 68.8288 128.219 68.8288C125.493 68.8288 123.198 69.8062 121.336 71.7608C119.518 73.67 118.609 76.4201 118.609 80.0112C118.609 83.6023 119.495 86.3751 121.267 88.3298C123.085 90.2389 125.357 91.1935 128.083 91.1935Z" fill="white"/>
<path d="M167.114 50.4871L166.024 83.4204H157.981L156.823 50.4871H167.114ZM162.207 99.3757C160.48 99.3757 159.049 98.853 157.913 97.8075C156.823 96.7165 156.278 95.3756 156.278 93.7846C156.278 92.1936 156.823 90.8753 157.913 89.8298C159.049 88.7389 160.48 88.1934 162.207 88.1934C163.888 88.1934 165.274 88.7389 166.364 89.8298C167.455 90.8753 168 92.1936 168 93.7846C168 95.3756 167.455 96.7165 166.364 97.8075C165.274 98.853 163.888 99.3757 162.207 99.3757Z" fill="white"/>
<ellipse cx="25" cy="66.3342" rx="5" ry="5.5" fill="white"/>
<path d="M55 79.8342C55 82.198 54.5473 84.5387 53.6679 86.7225C52.7884 88.9064 51.4994 90.8907 49.8744 92.5622C48.2493 94.2336 46.3202 95.5595 44.197 96.4641C42.0738 97.3686 39.7981 97.8342 37.5 97.8342C35.2019 97.8342 32.9262 97.3686 30.803 96.4641C28.6798 95.5595 26.7507 94.2336 25.1256 92.5621C23.5006 90.8907 22.2116 88.9064 21.3321 86.7225C20.4527 84.5387 20 82.198 20 79.8342L27.6846 79.8342C27.6846 81.16 27.9385 82.4728 28.4318 83.6977C28.9251 84.9226 29.648 86.0356 30.5595 86.973C31.4709 87.9105 32.553 88.6542 33.7438 89.1615C34.9347 89.6689 36.211 89.93 37.5 89.93C38.789 89.93 40.0653 89.6689 41.2562 89.1615C42.447 88.6542 43.5291 87.9105 44.4405 86.973C45.352 86.0356 46.0749 84.9226 46.5682 83.6977C47.0615 82.4728 47.3154 81.16 47.3154 79.8342H55Z" fill="white"/>
<ellipse cx="50" cy="66.3342" rx="5" ry="5.5" fill="white"/>
</svg>
