<svg width="144" height="108" viewBox="0 0 144 108" fill="none" xmlns="http://www.w3.org/2000/svg">
<path d="M142.186 4L139.953 71.364H123.488L121.116 4H142.186ZM132.14 104C128.605 104 125.674 102.931 123.349 100.792C121.116 98.5607 120 95.8178 120 92.5635C120 89.3092 121.116 86.6128 123.349 84.4742C125.674 82.2427 128.605 81.1269 132.14 81.1269C135.581 81.1269 138.419 82.2427 140.651 84.4742C142.884 86.6128 144 89.3092 144 92.5635C144 95.8178 142.884 98.5607 140.651 100.792C138.419 102.931 135.581 104 132.14 104Z" fill="#FFCC33"/>
<circle cx="54" cy="54" r="54" fill="#FFCC33"/>
<circle cx="33.0372" cy="41.0372" r="9.03717" fill="#2D2D2D"/>
<path d="M85.2519 63.6299C85.2519 67.6517 84.4598 71.6342 82.9207 75.3499C81.3816 79.0656 79.1257 82.4418 76.2818 85.2857C73.4379 88.1296 70.0617 90.3855 66.346 91.9246C62.6303 93.4637 58.6478 94.2558 54.626 94.2558C50.6041 94.2558 46.6216 93.4637 42.9059 91.9246C39.1902 90.3855 35.814 88.1296 32.9701 85.2857C30.1263 82.4418 27.8704 79.0656 26.3313 75.3499C24.7922 71.6342 24 67.6517 24 63.6299L37.4485 63.6299C37.4485 65.8856 37.8928 68.1193 38.7561 70.2034C39.6193 72.2874 40.8846 74.1811 42.4797 75.7761C44.0748 77.3712 45.9684 78.6365 48.0524 79.4997C50.1365 80.363 52.3702 80.8073 54.626 80.8073C56.8817 80.8073 59.1154 80.363 61.1995 79.4997C63.2835 78.6365 65.1772 77.3712 66.7722 75.7761C68.3673 74.1811 69.6326 72.2874 70.4958 70.2034C71.3591 68.1193 71.8034 65.8856 71.8034 63.6299H85.2519Z" fill="#2D2D2D"/>
<circle cx="76.2148" cy="41.0372" r="9.03717" fill="#2D2D2D"/>
</svg>
